<svg width="100" height="100" viewBox="0 0 100 100" fill="none" xmlns="http://www.w3.org/2000/svg">
<g filter="url(#filter0_d)">
<path d="M22.65 77.35C22.4625 77.1625 22.3572 76.9081 22.3572 76.643C22.3572 76.3778 22.4625 76.1235 22.65 75.936L45.879 52.707C46.0188 52.5671 46.114 52.389 46.1526 52.195C46.1912 52.0011 46.1714 51.8 46.0957 51.6173C46.02 51.4346 45.8919 51.2785 45.7275 51.1686C45.5631 51.0587 45.3698 51 45.172 51H22.6C22.4023 50.9999 22.209 50.9413 22.0445 50.8314C21.8801 50.7215 21.752 50.5653 21.6763 50.3826C21.6007 50.1999 21.5809 49.9989 21.6194 49.805C21.658 49.611 21.7532 49.4328 21.893 49.293L48.636 22.55C48.8235 22.3625 49.0778 22.2572 49.343 22.2572C49.6082 22.2572 49.8625 22.3625 50.05 22.55C50.2375 22.7375 50.3428 22.9918 50.3428 23.257C50.3428 23.5222 50.2375 23.7765 50.05 23.964L26.721 47.293C26.5812 47.4328 26.486 47.611 26.4474 47.805C26.4089 47.9989 26.4287 48.1999 26.5043 48.3826C26.58 48.5653 26.7081 48.7215 26.8725 48.8314C27.037 48.9413 27.2303 48.9999 27.428 49H50C50.1978 49 50.3911 49.0587 50.5555 49.1686C50.7199 49.2785 50.848 49.4346 50.9237 49.6173C50.9994 49.8 51.0192 50.0011 50.9806 50.195C50.942 50.389 50.8468 50.5671 50.707 50.707L24.064 77.35C23.8765 77.5375 23.6222 77.6428 23.357 77.6428C23.0918 77.6428 22.8375 77.5375 22.65 77.35Z" fill="#FAFFFD" stroke="#FAFFFD" stroke-miterlimit="10"/>
<path d="M75.986 77.4L49.293 50.707C49.1055 50.5194 49.0002 50.2651 49.0002 50C49.0002 49.7348 49.1055 49.4805 49.293 49.293L75.986 22.6C76.1735 22.4125 76.4278 22.3072 76.693 22.3072C76.9582 22.3072 77.2125 22.4125 77.4 22.6C77.5875 22.7875 77.6928 23.0418 77.6928 23.307C77.6928 23.5721 77.5875 23.8264 77.4 24.014L52.121 49.293C51.9335 49.4805 51.8282 49.7348 51.8282 50C51.8282 50.2651 51.9335 50.5194 52.121 50.707L77.4 75.986C77.5875 76.1735 77.6928 76.4278 77.6928 76.693C77.6928 76.9581 77.5875 77.2124 77.4 77.4C77.2125 77.5874 76.9582 77.6928 76.693 77.6928C76.4278 77.6928 76.1735 77.5874 75.986 77.4Z" fill="#FAFFFD" stroke="#FAFFFD" stroke-miterlimit="10"/>
<path d="M22.65 77.3C22.4625 77.1125 22.3572 76.8582 22.3572 76.593C22.3572 76.3278 22.4625 76.0735 22.65 75.886L45.879 52.657C46.0188 52.5171 46.114 52.339 46.1526 52.145C46.1912 51.9511 46.1714 51.75 46.0957 51.5673C46.02 51.3846 45.8919 51.2285 45.7275 51.1186C45.5631 51.0087 45.3698 50.95 45.172 50.95H22.6C22.4023 50.95 22.209 50.8913 22.0445 50.7814C21.8801 50.6715 21.752 50.5154 21.6763 50.3327C21.6007 50.15 21.5809 49.9489 21.6194 49.755C21.658 49.561 21.7532 49.3828 21.893 49.243L48.636 22.5C48.8235 22.3125 49.0778 22.2072 49.343 22.2072C49.6082 22.2072 49.8625 22.3125 50.05 22.5C50.2375 22.6875 50.3428 22.9418 50.3428 23.207C50.3428 23.4722 50.2375 23.7265 50.05 23.914L26.721 47.243C26.5812 47.3829 26.486 47.561 26.4474 47.755C26.4089 47.9489 26.4287 48.15 26.5043 48.3327C26.58 48.5154 26.7081 48.6715 26.8725 48.7814C27.037 48.8913 27.2303 48.95 27.428 48.95H50C50.1978 48.95 50.3911 49.0087 50.5555 49.1186C50.7199 49.2285 50.848 49.3846 50.9237 49.5673C50.9994 49.75 51.0192 49.9511 50.9806 50.145C50.942 50.339 50.8468 50.5171 50.707 50.657L24.064 77.3C23.8765 77.4875 23.6222 77.5928 23.357 77.5928C23.0918 77.5928 22.8375 77.4875 22.65 77.3Z" fill="#FAFFFD" stroke="#FAFFFD" stroke-miterlimit="10"/>
<path d="M75.986 77.4L49.293 50.707C49.1055 50.5194 49.0002 50.2651 49.0002 50C49.0002 49.7348 49.1055 49.4805 49.293 49.293L75.986 22.6C76.1735 22.4125 76.4278 22.3072 76.693 22.3072C76.9582 22.3072 77.2125 22.4125 77.4 22.6C77.5875 22.7875 77.6928 23.0418 77.6928 23.307C77.6928 23.5721 77.5875 23.8264 77.4 24.014L52.121 49.293C51.9335 49.4805 51.8282 49.7348 51.8282 50C51.8282 50.2651 51.9335 50.5194 52.121 50.707L77.4 75.986C77.5875 76.1735 77.6928 76.4278 77.6928 76.693C77.6928 76.9581 77.5875 77.2124 77.4 77.4C77.2125 77.5874 76.9582 77.6928 76.693 77.6928C76.4278 77.6928 76.1735 77.5874 75.986 77.4Z" fill="#FAFFFD" stroke="#FAFFFD" stroke-miterlimit="10"/>
</g>
<defs>
<filter id="filter0_d" x="-4" y="0" width="108" height="108" filterUnits="userSpaceOnUse" color-interpolation-filters="sRGB">
<feFlood flood-opacity="0" result="BackgroundImageFix"/>
<feColorMatrix in="SourceAlpha" type="matrix" values="0 0 0 0 0 0 0 0 0 0 0 0 0 0 0 0 0 0 127 0"/>
<feOffset dy="4"/>
<feGaussianBlur stdDeviation="2"/>
<feColorMatrix type="matrix" values="0 0 0 0 0 0 0 0 0 0 0 0 0 0 0 0 0 0 0.25 0"/>
<feBlend mode="normal" in2="BackgroundImageFix" result="effect1_dropShadow"/>
<feBlend mode="normal" in="SourceGraphic" in2="effect1_dropShadow" result="shape"/>
</filter>
</defs>
</svg>
